<?xml version="1.0" encoding="UTF-8"?> <svg xmlns="http://www.w3.org/2000/svg" id="Livello_1" data-name="Livello 1" viewBox="0 0 464.71 258.45"><defs><style>.cls-1{fill:#006DAB;}</style></defs><title>Automation</title><path class="cls-1" d="M199.77,292.77a81.36,81.36,0,1,1,39.57-152.48l20.38-36.51a123.18,123.18,0,1,0-60,230.8c64,0,116.73-49.09,122.59-111.6H280.22a81.41,81.41,0,0,1-80.45,69.79" transform="translate(-76.61 -76.13)"></path><path class="cls-1" d="M418.15,76.13c-64,0-116.73,49.09-122.58,111.6h42.14a81.19,81.19,0,1,1,40.88,82.7L358.2,306.94A123.19,123.19,0,1,0,418.15,76.13" transform="translate(-76.61 -76.13)"></path></svg>
